<?xml version="1.0" encoding="utf-8"?>
<svg xmlns="http://www.w3.org/2000/svg" width="1440" height="426" viewBox="0 0 1440 426" fill="none">
<path d="M245.134 61.1284C268.765 77.418 279.503 120.311 279.503 153.243C279.572 162.641 278.656 172.02 276.77 181.228C270.083 212.2 264.071 238.643 258.798 261.937C244.587 324.396 236.035 362.084 236.035 393.41C236.035 419.499 241.854 441.861 256.837 473.155C269.478 499.267 283.638 524.618 299.244 549.076C317.988 579.31 330.367 599.262 330.367 626.604C330.228 636.533 328.812 646.402 326.155 655.97L323.84 655.97C326.527 646.407 327.964 636.536 328.116 626.604C328.116 599.905 315.866 580.177 297.347 550.265C281.684 525.734 267.47 500.309 254.779 474.118C239.668 442.503 233.784 419.884 233.784 393.41C233.784 361.827 242.369 324.042 256.579 261.455C261.884 238.129 267.897 211.718 274.552 180.746C276.427 171.7 277.333 162.481 277.253 153.243C277.253 120.889 266.803 78.8317 243.88 62.9598C238.924 59.5198 233.171 57.404 227.166 56.8135C221.161 56.223 215.105 57.1775 209.574 59.5862C184.496 69.0322 162.376 113.21 142.828 152.215C131.029 175.766 119.872 198.031 109.52 209.469C79.233 242.916 38.2401 234.884 -5.96791 221.325L-5.96791 219.012C37.79 232.506 78.3327 240.635 107.848 208.024C117.975 196.81 129.067 174.673 140.803 151.251C160.543 111.925 182.889 67.2972 208.77 57.5299C214.631 54.9586 221.055 53.939 227.424 54.5692C233.793 55.1995 239.892 57.4585 245.134 61.1284Z" fill="#D8CEB5"/>
<path d="M502.472 645.753C601.627 641.191 673.935 578.025 732.032 527.26L736.148 523.662C742.353 517.782 758.943 504.191 778.973 505.252C791.191 505.894 802.219 511.935 811.8 523.18C817.523 529.959 822.892 536.032 827.875 542.136C850.272 567.316 871.205 593.759 890.57 621.335C898.737 633.094 906.646 644.661 913.719 655.97L912.594 655.97C905.424 644.854 897.837 633.48 889.799 621.881C870.438 594.33 849.517 567.909 827.136 542.747C822.024 536.803 816.655 530.57 811.06 523.822C801.672 512.77 790.837 506.858 778.909 506.216C759.361 505.155 742.932 518.553 736.855 524.24L732.708 527.871C674.449 578.86 602.013 642.155 502.504 646.717C491.927 647.231 485.432 651.344 483.214 655.97L482.056 655.97C484.146 650.958 490.705 646.332 502.472 645.753Z" fill="#D8CEB5"/>
<path d="M501.443 623.295C592.753 619.086 661.75 558.779 717.211 510.328L721.358 506.698C731.146 498.005 741.384 489.833 752.031 482.215C762.833 474.665 782.928 460.624 814.918 493.782C849.391 529.427 880.926 567.797 909.218 608.515C920.621 624.987 930.952 640.805 940.212 655.97L939.087 655.97C929.891 640.977 919.667 625.34 908.414 609.062C880.156 568.394 848.664 530.068 814.243 494.456C782.799 461.909 763.155 475.629 752.577 482.986C741.958 490.602 731.742 498.763 721.969 507.437L717.822 511.067C662.264 559.582 593.107 620.05 501.476 624.259C458.972 626.219 434.247 633.898 423.637 648.002C421.77 650.293 420.559 653.047 420.133 655.97L419.136 655.97C419.571 652.834 420.861 649.877 422.866 647.424C433.636 632.934 458.618 625.287 501.443 623.295Z" fill="#D8CEB5"/>
<path d="M1154.53 231.125C1179.22 237.39 1185.82 287.768 1193.4 346.083C1195.27 360.509 1197.23 375.417 1199.51 389.875C1209.61 453.845 1241.76 512.384 1272.82 568.996C1288.44 597.366 1304.32 626.315 1317.41 655.97L1314.93 655.97C1302.07 626.733 1286.29 598.138 1270.92 570.089C1239.73 513.316 1207.52 454.423 1197.36 390.165C1195.07 375.674 1193.11 360.734 1191.22 346.308C1184.01 291.206 1177.2 239.125 1153.99 233.245C1135.92 228.683 1108.49 252.201 1070.17 305.15C1016.41 379.658 991.365 441.893 991.365 501.46C991.568 536.276 1000.14 570.533 1016.35 601.351C1026.63 620.535 1038.54 638.808 1051.94 655.97L1049.11 655.97C1036.03 639.066 1024.42 621.084 1014.38 602.218C998.027 571.133 989.372 536.58 989.146 501.46C989.146 441.411 1014.32 378.63 1068.4 303.93C1107.82 249.374 1135.21 226.241 1154.53 231.125Z" fill="#D8CEB5"/>
<path d="M647.057 647.649C662.02 638.576 676.214 628.292 689.496 616.901C708.787 601.254 728.721 585.061 753.22 576.322C796.399 560.964 816.365 591.101 837.489 622.974L843.404 631.841C846.973 637.11 850.317 642.058 853.725 646.942C855.397 649.352 857.519 652.308 860.155 655.97L859.03 655.97C856.544 652.586 854.518 649.759 852.953 647.488C849.738 642.605 846.202 637.657 842.633 632.355L836.524 623.52C815.626 591.937 795.853 562.121 753.381 577.254C729.042 585.896 709.141 602.057 689.946 617.64C676.627 629.071 662.39 639.387 647.378 648.484C642.002 651.33 636.45 653.831 630.756 655.97L628.152 655.97L630.113 655.199C635.915 653.043 641.574 650.521 647.057 647.649Z" fill="#D8CEB5"/>
<path d="M170.993 253.133C173.771 248.126 175.065 242.431 174.722 236.715C174.722 234.273 174.722 231.831 174.465 229.229C174.208 226.626 174.24 223.96 174.24 221.293C173.901 214.016 175.617 206.79 179.191 200.441C190.509 182.159 203.658 176.119 211.053 178.24C215.972 179.621 218.77 184.376 218.77 191.252C218.268 199.124 216.075 206.795 212.339 213.743C209.121 219.395 205.067 224.529 200.315 228.972C194.753 234.787 188.997 240.763 187.133 247.607C186.553 249.7 186.261 251.861 186.265 254.033C186.442 258.232 187.21 262.385 188.547 266.37C189.954 270.518 190.756 274.846 190.926 279.222C190.938 280.829 190.787 282.433 190.476 284.009C188.965 292.17 183.789 297.729 178.773 303.287C174.225 307.592 170.613 312.787 168.163 318.548C165.432 327.835 164.226 337.503 164.595 347.176C164.923 363.295 166.136 379.383 168.228 395.37L169.482 406.711C172.439 436.463 181.763 467.371 197.968 501.236C211.624 529.479 226.922 556.9 243.783 583.358C250.506 593.475 254.249 605.276 254.586 617.415C254.386 631.482 249.435 645.069 240.536 655.97L239.346 655.97C248.374 645.126 253.412 631.519 253.621 617.415C253.405 605.418 249.805 593.724 243.237 583.679C226.342 557.23 211.022 529.808 197.357 501.557C181.12 467.596 171.636 436.559 168.774 406.711L167.52 395.402C165.449 379.413 164.236 363.326 163.887 347.208C163.527 337.436 164.754 327.671 167.52 318.291C169.991 312.399 173.671 307.09 178.323 302.709C183.467 297.182 188.322 291.945 189.801 284.074C190.085 282.548 190.225 280.999 190.219 279.447C190.041 275.151 189.262 270.9 187.904 266.82C186.526 262.744 185.736 258.492 185.557 254.193C185.554 251.946 185.857 249.708 186.458 247.543C188.419 240.442 194.238 234.37 199.865 228.522C204.55 224.144 208.549 219.085 211.728 213.518C215.368 206.681 217.494 199.142 217.966 191.413C217.966 184.987 215.49 180.617 210.957 179.332C203.884 177.308 191.216 183.252 180.188 201.116C176.694 207.305 175.022 214.356 175.365 221.454C175.365 224.088 175.365 226.755 175.59 229.357C175.815 231.96 175.848 234.434 175.848 236.876C176.184 242.77 174.847 248.64 171.989 253.808C168.228 259.752 158.807 264.282 149.644 268.652C144.653 270.834 139.856 273.435 135.305 276.427C105.34 298.403 73.0599 299.753 33.8675 294.998C20.4792 293.242 7.21666 290.634 -5.83925 287.19L-5.83925 286.162C7.24571 289.598 20.5421 292.174 33.9641 293.873C72.9636 298.596 105.018 297.279 134.726 275.463C139.331 272.438 144.181 269.805 149.226 267.591C158.132 263.286 167.585 258.852 170.993 253.133Z" fill="#D8CEB5"/>
<path d="M717.854 569.221L722.998 564.884C747.336 544.192 772.511 522.794 802.637 547.116C825.914 565.912 845.108 594.282 862.052 619.311C865.46 624.419 868.868 629.303 872.212 634.122C874.463 637.335 877.678 641.769 881.375 646.974L887.966 655.97L886.776 655.97L880.539 647.424C876.81 642.315 873.627 637.785 871.376 634.572C868 629.721 864.689 624.933 861.184 619.632C844.272 594.668 825.11 566.33 801.961 547.63C772.479 523.823 747.594 544.964 723.544 565.366C721.84 566.844 720.104 568.322 718.4 569.735C696.988 587.696 668.276 610.636 636.35 628.789C617.08 639.795 596.782 648.898 575.745 655.97L572.53 655.97C594.555 648.871 615.79 639.526 635.9 628.082C667.794 609.993 696.441 587.085 717.854 569.221Z" fill="#D8CEB5"/>
<path d="M1043.26 587.439C1030.72 563.02 1024.9 542.265 1024.9 522.152C1024.9 501.075 1031.33 482.344 1038.56 460.656C1042.71 448.351 1047.44 434.407 1051.42 418.567C1052.97 412.162 1053.73 405.59 1053.67 399C1053.67 395.787 1053.67 392.992 1053.42 390.165C1053.16 387.337 1053.22 384.927 1053.22 382.389C1053.22 369.538 1056.44 359.031 1071.65 347.69C1079.31 342.002 1087.86 337.606 1096.95 334.677C1107.49 330.886 1115.82 327.898 1127.75 311.255C1130.96 306.108 1133.57 300.61 1135.53 294.869C1139.29 285.23 1142.54 277.134 1148.01 276.78C1152.44 276.523 1157.43 281.696 1163.6 293.07C1171.03 306.693 1172.02 326.163 1172.02 343.416C1172.02 351.095 1171.8 359.16 1171.54 366.967C1171.28 374.775 1171.09 383.032 1171.09 390.711C1170.68 403.938 1172.02 417.161 1175.08 430.037C1190.19 485.942 1219.12 538.377 1244.43 584.611C1257.71 608.901 1270.57 632.452 1281.75 655.97L1279.95 655.97C1268.96 632.709 1256.19 609.415 1243.01 585.286C1217.58 538.955 1188.77 486.456 1173.5 430.358C1170.47 417.337 1169.15 403.976 1169.58 390.614C1169.58 382.807 1169.8 374.55 1170.03 366.839C1170.25 359.128 1170.51 350.967 1170.51 343.32C1170.51 326.259 1169.55 307.078 1162.31 293.745C1156.59 283.27 1151.86 278.065 1148.2 278.29C1143.73 278.579 1140.55 286.74 1137.14 295.383C1135.11 301.275 1132.42 306.913 1129.1 312.187C1116.92 329.247 1107.95 332.46 1097.56 336.187C1088.58 339.089 1080.13 343.429 1072.55 349.039C1057.76 359.995 1054.8 369.955 1054.8 382.454C1054.8 384.96 1054.8 387.466 1054.99 390.165C1055.18 392.863 1055.15 395.916 1055.15 398.936C1055.21 405.668 1054.44 412.381 1052.84 418.92C1048.85 434.792 1044.12 448.768 1039.98 461.106C1032.71 482.665 1026.41 501.268 1026.41 522.152C1026.41 542.008 1032.2 562.506 1044.57 586.7C1056.02 608.805 1071.23 628.693 1085.7 647.938L1091.77 655.97L1089.75 655.97L1084.41 648.902C1069.78 629.624 1054.64 609.672 1043.26 587.439Z" fill="#D8CEB5"/>
<path d="M1072.16 572.627C1060.44 550.725 1054.22 526.299 1054.06 501.46C1054.06 487.934 1059.59 458.761 1068.82 433.282C1076.92 410.984 1090.36 384.381 1108.43 384.349C1129.71 384.349 1141.54 425.346 1148.62 449.893C1150.16 455.226 1151.48 459.853 1152.6 462.745C1170.06 510.161 1191.23 556.13 1215.91 600.226C1226.36 619.182 1236.52 637.721 1245.65 655.97L1244.56 655.97C1235.49 637.882 1225.26 619.504 1215.11 600.676C1190.37 556.583 1169.13 510.614 1151.61 463.194C1150.45 459.982 1149.13 455.451 1147.59 450.086C1140.61 425.796 1128.91 385.152 1108.33 385.217C1077.08 385.217 1054.93 473.379 1054.93 501.428C1055.11 526.095 1061.28 550.35 1072.9 572.113C1082.96 591.744 1097.21 610.475 1110.97 628.628C1117.62 637.4 1124.47 646.428 1131.13 655.874L1129.94 655.874C1123.51 646.653 1116.72 637.817 1110.2 629.207C1096.5 610.989 1082.26 592.354 1072.16 572.627Z" fill="#D8CEB5"/>
<path d="M1092.19 562.378C1082.09 543.601 1076.73 522.647 1076.57 501.332C1076.57 483.532 1081.84 460.239 1093.44 451.307C1095.9 449.387 1098.79 448.093 1101.86 447.533C1104.93 446.973 1108.09 447.166 1111.06 448.094C1126.66 452.142 1137.65 484.785 1145.72 508.593C1148.33 516.304 1150.58 522.955 1152.47 527.035C1165.33 554.57 1180.19 581.655 1194.66 608.162L1196.26 611.086C1204.62 626.379 1212.69 641.287 1220.38 655.97L1219.32 655.97C1211.79 641.448 1203.69 626.701 1195.43 611.632L1193.82 608.676C1179.35 582.33 1164.47 555.052 1151.61 527.453C1149.71 523.308 1147.46 516.626 1144.82 508.914C1137.3 486.617 1125.92 452.945 1110.84 449.025C1107.99 448.172 1104.99 448.019 1102.07 448.578C1099.15 449.137 1096.41 450.393 1094.09 452.238C1082.71 460.945 1077.66 483.886 1077.66 501.525C1077.86 522.625 1083.18 543.363 1093.16 561.96C1102.19 579.824 1115.82 597.784 1129.1 615.134C1138.52 627.697 1148.74 641.191 1158.39 655.97L1157.23 655.97C1147.59 641.416 1137.62 628.114 1128.3 615.712C1115.02 598.33 1101.39 580.338 1092.19 562.378Z" fill="#D8CEB5"/>
<path d="M1421.68 85.7394C1428.11 84.1329 1434.54 82.5264 1440.97 81.0806L1440.97 82.7513C1434.73 84.1971 1428.46 85.7393 1422.1 87.3137C1410.17 90.2695 1397.85 93.3218 1385.25 95.7958C1343.29 104.021 1288.31 111.121 1234.91 92.5828C1213.21 85.1289 1195.49 66.5581 1179.87 50.1722C1165.95 35.5534 1153.92 22.9586 1143.83 24.1153C1139.16 24.6294 1135.05 28.0029 1131.19 34.461C1129.07 39.2088 1128.15 44.407 1128.52 49.5939C1128.52 74.2692 1139.42 117.772 1150.22 149.966C1161.96 185.147 1180.54 228.265 1203.05 235.076C1210.19 237.229 1217.39 235.462 1224.49 229.871C1233.14 222.87 1241.42 215.439 1249.31 207.606C1264.52 192.987 1278.89 179.171 1300.21 170.047C1330.01 157.025 1363.55 155.345 1394.51 165.324C1402.29 167.733 1409.46 170.143 1415.79 172.296C1425.15 175.509 1433.32 178.175 1440.9 180.071L1440.9 181.742C1433.16 179.846 1424.83 177.019 1415.18 173.806C1408.75 171.685 1401.71 169.276 1393.93 166.866C1363.33 156.977 1330.16 158.634 1300.69 171.525C1279.63 180.521 1265.33 194.24 1250.25 208.762C1242.5 216.216 1234.46 223.927 1225.33 231.253C1217.81 237.165 1210.09 239.028 1202.41 236.715C1179.32 229.839 1160.32 186.24 1148.46 150.865C1137.62 118.543 1126.69 74.8475 1126.69 49.9794C1126.28 44.4662 1127.28 38.9393 1129.58 33.9148C1133.7 26.9749 1138.23 23.3442 1143.41 22.7659C1154.31 21.545 1166.59 34.3967 1180.8 49.3047C1196.3 65.5621 1213.88 84.0043 1235.2 91.3298C1288.25 109.547 1342.97 102.511 1384.74 94.3179C1397.5 91.7475 1409.81 88.6953 1421.68 85.7394Z" fill="#D8CEB5"/>
<path d="M1111.93 552.289C1106.56 540.485 1103.45 527.777 1102.77 514.826C1102.53 511.155 1103.33 507.491 1105.08 504.256C1108.3 499.147 1111.51 496.898 1114.73 497.38C1121.48 498.408 1125.56 513.156 1128.88 524.979C1129.77 528.874 1130.92 532.706 1132.32 536.449C1145.4 564.627 1160.54 592.226 1175.17 618.861L1176.78 621.817C1183.18 633.48 1189.42 644.757 1195.33 655.97L1193.4 655.97C1187.58 645.014 1181.47 633.897 1175.27 622.588L1173.66 619.632C1159.16 592.965 1143.99 565.366 1130.87 537.092C1129.37 533.272 1128.13 529.353 1127.17 525.365C1124.15 514.601 1120.07 499.661 1114.31 498.922C1111.96 498.569 1109.3 500.657 1106.43 505.091C1104.86 508.049 1104.15 511.388 1104.38 514.73C1105.08 527.45 1108.12 539.931 1113.35 551.55C1121.61 567.615 1134.6 584.772 1147.17 601.351C1160.89 618.828 1173.61 637.063 1185.27 655.97L1183.37 655.97C1171.87 637.4 1159.36 619.477 1145.88 602.282C1133.28 585.671 1120.23 568.482 1111.93 552.289Z" fill="#D8CEB5"/>
<path d="M500.383 600.515C583.719 596.66 649.404 539.277 702.164 493.171L706.343 489.541C769.135 434.696 791.094 436.913 816.494 462.648C857.448 503.607 894.745 548.061 927.962 595.503C942.205 616.066 955.259 636.371 966.833 655.97L964.968 655.97C953.522 636.693 940.694 616.644 926.644 596.435C893.474 549.062 856.23 504.673 815.336 463.773C790.676 438.776 769.231 436.752 707.372 490.729L703.225 494.36C650.272 540.658 584.265 598.266 500.447 602.122C421.773 605.752 398.591 635.375 392.097 655.97L390.425 655.97C396.823 634.894 420.069 604.21 500.383 600.515Z" fill="#D8CEB5"/>
<path d="M143.246 331.304C146.911 345.601 147.169 360.991 147.394 375.835C147.394 384.413 147.651 393.281 148.455 401.731C151.591 439.623 161.569 476.633 177.905 510.971C191.911 539.957 207.606 568.097 224.91 595.246C229.307 601.83 231.79 609.505 232.08 617.415C232.08 630.877 223.271 644.757 208.578 655.97L206.97 655.97C222.049 644.886 231.116 630.942 231.116 617.415C230.876 609.62 228.447 602.049 224.107 595.567C206.799 568.37 191.094 540.188 177.069 511.164C160.708 476.772 150.699 439.711 147.522 401.763C146.719 393.249 146.59 384.381 146.461 375.771C146.236 360.991 145.979 345.666 142.346 331.496C136.655 309.392 120.515 310.195 101.578 313.343C79.0723 317.07 56.5665 320.187 31.167 317.103C18.7219 315.527 6.37706 313.242 -5.80702 310.259L-5.80702 309.263C6.41917 312.26 18.8067 314.556 31.2954 316.139C56.5985 319.352 78.9115 316.139 101.417 312.38C120.097 309.359 137.363 308.46 143.246 331.304Z" fill="#D8CEB5"/>
<path d="M1413.16 245.872C1344.55 223.863 1307.25 214.899 1275.65 269.551C1270.23 278.969 1266.35 289.184 1264.14 299.817C1262.05 309.953 1261.04 320.281 1261.11 330.629C1261.11 432.19 1346.06 571.599 1391.68 646.685L1393.22 649.255L1397.47 655.97L1395.57 655.97L1392 650.091L1390.43 647.52C1344.71 572.434 1259.63 432.64 1259.63 330.629C1259.57 320.173 1260.59 309.739 1262.69 299.496C1264.91 288.705 1268.82 278.329 1274.26 268.748C1306.41 213.036 1344.22 222.064 1413.64 244.362C1422.45 247.189 1431.61 250.113 1440.97 252.78L1440.97 254.354C1431.32 251.751 1422.1 248.763 1413.16 245.872Z" fill="#D8CEB5"/>
<path d="M1422.96 374.132C1420.52 373.489 1417.56 372.59 1414.22 371.562C1404.57 368.67 1398.3 369.184 1395.15 373.104C1393.42 375.59 1392.58 378.593 1392.77 381.618C1392.77 397.297 1406.79 423.386 1411.39 431.997C1413.64 436.174 1415.31 439.355 1416.57 441.828L1423 455.002C1428.91 467.082 1434.89 478.874 1440.9 490.344L1440.9 492.4C1434.47 480.48 1428.33 468.142 1422.13 455.483L1415.7 442.31C1414.44 439.836 1412.77 436.688 1410.52 432.672C1405.89 424.029 1391.81 397.779 1391.81 381.843C1391.61 378.593 1392.53 375.373 1394.41 372.718C1397.82 368.477 1404.57 367.835 1414.51 370.855C1417.72 371.883 1420.94 372.783 1423.22 373.425C1429.04 374.742 1434.92 376.445 1440.97 377.763L1440.97 378.759C1434.83 377.281 1428.85 375.706 1422.96 374.132Z" fill="#D8CEB5"/>
<path d="M1403.42 276.17C1375.64 267.238 1340.78 258.724 1317.8 272.057C1306.38 278.483 1298.86 290.21 1295.29 306.436C1293.68 314.387 1292.91 322.485 1292.98 330.597C1293.07 423.29 1374.99 557.847 1419.01 630.267L1427.11 643.504C1429.59 647.585 1431.9 651.761 1434.09 655.97L1432.99 655.97C1430.87 651.922 1428.65 647.938 1426.27 643.986L1418.17 630.652C1374.13 558.297 1292.11 423.547 1292.11 330.597C1292.03 322.419 1292.82 314.256 1294.45 306.243C1297.96 289.76 1305.64 277.969 1317.31 271.222C1340.66 257.695 1375.73 266.274 1403.74 275.238C1415.73 279.094 1428.11 282.917 1440.97 286.162L1440.97 287.19C1428.11 283.881 1415.5 280.057 1403.42 276.17Z" fill="#D8CEB5"/>
<path d="M1428.75 352.38C1426.56 351.802 1423.86 350.999 1420.78 350.035C1405.47 345.376 1382.2 338.34 1371.68 344.991C1369.49 346.39 1367.61 348.225 1366.17 350.38C1364.72 352.536 1363.73 354.967 1363.26 357.521C1362.72 359.98 1362.46 362.491 1362.49 365.007C1362.49 388.462 1381.39 423.708 1391.42 442.632C1393.38 446.294 1395.09 449.475 1396.28 451.853L1397.24 453.556L1399.81 458.761L1403.03 464.962C1415.25 490.472 1428.11 514.794 1440.97 537.092L1440.97 539.052C1427.95 516.24 1414.8 491.436 1402 465.154L1398.79 458.953L1396.21 453.781L1395.38 452.11C1394.19 449.764 1392.52 446.584 1390.52 442.921C1380.33 423.932 1361.36 388.558 1361.36 364.847C1361.34 362.256 1361.6 359.671 1362.13 357.136C1362.69 354.5 1363.78 352.005 1365.34 349.802C1366.89 347.598 1368.87 345.732 1371.17 344.316C1382.2 337.28 1405.6 344.316 1421.07 349.135C1424.28 350.067 1426.82 350.87 1428.98 351.449C1432.93 352.509 1436.92 353.569 1440.97 354.662L1440.97 355.658C1436.85 354.533 1432.77 353.473 1428.75 352.38Z" fill="#D8CEB5"/>
<path d="M1434.54 330.661C1417.37 326.099 1399.65 321.376 1381.33 321.022C1357.66 320.38 1344.13 329.601 1341.07 348.396C1340.61 351.405 1340.39 354.445 1340.4 357.489C1340.4 390.165 1363.74 436.913 1376.28 462.038L1379.49 468.785L1382.52 474.986C1401.81 513.895 1421.68 550.136 1440.97 581.238L1440.97 583.069C1421.42 551.614 1401.23 514.891 1381.78 475.243L1378.76 469.042L1375.54 462.327C1362.84 437.138 1339.43 390.229 1339.43 357.168C1339.42 354.081 1339.64 350.998 1340.11 347.947C1343.32 328.669 1357.15 319.03 1381.36 319.737C1399.78 320.251 1417.56 324.974 1434.79 329.569C1436.82 330.276 1438.91 330.822 1440.97 331.464L1440.97 332.46C1438.81 331.786 1436.66 331.239 1434.54 330.661Z" fill="#D8CEB5"/>
<path d="M1396.53 297.568C1395.09 297.118 1393.61 296.636 1392.13 296.122C1376.47 291.014 1360.3 285.68 1344.71 294.259C1337.93 298.251 1332.05 303.59 1327.42 309.946C1322.79 316.301 1319.52 323.537 1317.8 331.207C1317.47 332.782 1317.19 334.42 1317.02 335.898C1316.57 339.855 1316.34 343.835 1316.35 347.818C1316.35 390.968 1341.23 441.571 1359.4 478.52L1362.45 484.721C1385.7 532.176 1413.61 578.025 1438.23 618.475L1440.97 622.974L1440.97 624.837L1437.4 618.989C1412.77 578.507 1384.86 532.658 1361.59 485.139L1358.53 478.938C1340.33 441.925 1315.38 391.193 1315.38 347.818C1315.38 343.792 1315.6 339.769 1316.06 335.77C1316.25 334.195 1316.51 332.557 1316.86 330.982C1318.62 323.187 1321.95 315.834 1326.66 309.374C1331.36 302.915 1337.34 297.487 1344.22 293.423C1360.3 284.652 1376.6 290.018 1392.45 295.222L1396.89 296.668C1410.97 301.199 1425.82 305.632 1441 309.327L1441 310.323C1425.6 306.596 1410.71 302.13 1396.53 297.568Z" fill="#D8CEB5"/>
<path d="M1440.77 110.19L1440.97 110.19L1440.97 111.507C1438.76 113.781 1436.16 115.633 1433.28 116.969C1423.9 120.953 1413.99 119.829 1404.64 118.736C1399.31 117.969 1393.94 117.636 1388.56 117.74C1379.98 118.365 1371.46 119.621 1363.07 121.499C1356.12 122.849 1348.95 124.262 1341.94 124.937C1299.5 128.889 1260.92 125.162 1227.68 113.724C1220.8 111.346 1210.15 102.029 1198.74 92.1652C1184.37 79.5705 1169.45 66.4618 1160.42 66.012C1159.54 65.9111 1158.65 65.9995 1157.82 66.2712C1156.98 66.5429 1156.21 66.9913 1155.56 67.5863C1151.96 70.992 1151.28 80.1167 1153.6 94.7355C1155.79 105.353 1159.29 115.659 1164.02 125.419C1166.52 131.17 1169.13 137.146 1171.12 143.09L1172.99 148.327C1180.03 169.693 1189.71 198.963 1206.62 203.14C1214.69 205.132 1223.91 201.212 1234.04 191.477C1250.12 176.151 1266.48 160.311 1291.53 149.709C1315.55 139.427 1362.26 127.604 1387.53 132.134C1391.86 133.022 1395.96 134.782 1399.59 137.307C1401.92 139.102 1404.58 140.404 1407.43 141.133C1410.28 141.863 1413.24 142.004 1416.15 141.548C1420.5 140.772 1424.6 138.965 1428.11 136.279C1429.89 134.824 1431.95 133.737 1434.15 133.081C1436.36 132.424 1438.68 132.212 1440.97 132.455L1440.97 133.419C1438.78 133.18 1436.57 133.381 1434.46 134.01C1432.35 134.639 1430.39 135.683 1428.69 137.082C1425.05 139.801 1420.8 141.588 1416.31 142.287C1413.31 142.778 1410.24 142.647 1407.29 141.9C1404.34 141.154 1401.58 139.809 1399.17 137.949C1395.65 135.474 1391.65 133.747 1387.44 132.873C1362.33 128.375 1315.87 140.166 1291.98 150.416C1267.09 161.083 1250.66 176.89 1234.78 192.184C1224.4 202.176 1214.88 206.16 1206.46 204.072C1189 199.766 1179.26 170.207 1172.12 148.649L1170.38 143.411C1168.42 137.532 1165.82 131.588 1163.34 125.837C1158.56 116.017 1155.04 105.632 1152.86 94.9284C1152.01 90.0563 1151.55 85.1253 1151.48 80.181C1151.48 73.5623 1152.67 69.2249 1155.11 66.9116C1155.86 66.2323 1156.74 65.7181 1157.7 65.4025C1158.65 65.0869 1159.67 64.9771 1160.67 65.0802C1170.03 65.6264 1185.08 78.7673 1199.58 91.4905C1210.76 101.129 1221.34 110.511 1228.06 112.824C1261.27 124.262 1299.57 127.957 1341.97 123.845C1348.92 123.17 1356.06 121.788 1363 120.407C1371.47 118.535 1380.07 117.279 1388.72 116.648C1394.1 116.551 1399.47 116.884 1404.8 117.644C1414.44 118.768 1423.77 119.828 1432.93 115.941C1435.88 114.527 1438.54 112.577 1440.77 110.19Z" fill="#D8CEB5"/>
<path d="M1422.9 215.606C1359.53 195.268 1294 174.256 1248.09 253.647C1241.05 265.964 1236 279.311 1233.11 293.198C1230.59 305.514 1229.35 318.058 1229.41 330.629C1229.41 437.973 1309.15 572.241 1360.2 655.97L1357.57 655.97C1306.51 571.952 1227.16 438.069 1227.16 330.629C1227.09 317.905 1228.35 305.209 1230.92 292.748C1233.85 278.626 1238.98 265.052 1246.13 252.523C1293.07 171.557 1359.37 192.859 1423.57 213.453C1429.43 215.317 1435.21 217.18 1440.97 219.012L1440.97 221.389C1434.99 219.494 1428.98 217.534 1422.9 215.606Z" fill="#D8CEB5"/>
<path d="M112.767 347.947C123.602 359.642 124.502 377.12 125.306 392.542C125.531 396.526 125.724 400.253 126.045 403.884C129.428 444.348 140.125 483.864 157.618 520.513C169.877 547.09 184.252 572.64 200.604 596.917C204.246 601.955 206.254 607.988 206.359 614.202C206.359 627.375 196.006 639.906 178.709 647.36C172.279 650.251 165.849 653.079 159.418 655.97L157.103 655.97C164.08 652.757 171.153 649.545 178.355 646.332C195.428 639.07 205.555 627.054 205.555 614.202C205.445 608.177 203.48 602.333 199.929 597.463C183.522 573.169 169.072 547.61 156.718 521.027C139.203 484.27 128.495 444.647 125.113 404.077C124.759 400.414 124.566 396.687 124.341 392.703C123.537 377.441 122.637 360.124 112.059 348.686C99.7777 335.448 76.468 337.312 55.9233 339.047C46.7994 340.104 37.5974 340.319 28.4339 339.689C16.859 338.013 5.40917 335.566 -5.83925 332.364L-5.83925 331.464C5.45274 334.627 16.9465 337.021 28.5627 338.629C37.6511 339.258 46.7783 339.043 55.8269 337.987C76.6288 336.219 100.26 334.356 112.767 347.947Z" fill="#D8CEB5"/>
<path d="M56.9521 648.227C58.0774 651.055 59.1385 653.657 60.3281 655.97L59.2671 655.97C58.1096 653.689 57.113 651.215 56.052 648.613C55.5376 647.231 54.9589 645.85 54.3801 644.436C47.3887 627.067 38.7203 610.421 28.4983 594.732C17.3097 578.153 5.76733 559.39 -5.83924 539.116L-5.83924 537.092C6.05676 557.976 17.8563 577.189 29.3021 594.154C39.5494 609.906 48.239 626.617 55.2482 644.05C55.859 645.496 56.4377 646.878 56.9521 648.227Z" fill="#D8CEB5"/>
<path d="M9.85058 607.294C4.67419 599.648 -0.566409 591.519 -5.83924 583.037L-5.83924 581.238C-0.277102 590.17 5.22082 598.716 10.6222 606.941C20.5547 622.473 29.0355 638.885 35.9574 655.97L34.9286 655.97C28.0554 639.022 19.6619 622.731 9.85058 607.294Z" fill="#D8CEB5"/>
<path d="M771.643 625.962C781.996 627.536 791.255 634.669 799.968 647.809L805.402 655.97L804.373 655.97L799.293 648.324C790.741 635.472 781.706 628.436 771.611 626.893C754.956 624.355 737.755 637.014 718.625 652.597C717.307 653.625 715.732 654.782 714.028 656.002L712.356 656.002C714.51 654.492 716.439 653.111 718.014 651.826C737.209 636.114 754.57 623.327 771.643 625.962Z" fill="#D8CEB5"/>
<path d="M-0.469972 631.841C4.22876 639.62 8.44849 647.678 12.1655 655.97L11.1044 655.97C7.4408 647.855 3.30798 639.959 -1.27368 632.323L-5.83923 624.837L-5.83923 622.974L-0.469972 631.841Z" fill="#D8CEB5"/>
<path d="M1437.75 436.881C1434.54 430.872 1430.52 422.615 1430.52 415.322C1430.44 412.533 1431.21 409.786 1432.74 407.45L1433.16 406.904C1435.22 404.563 1437.94 402.905 1440.97 402.149L1440.97 403.82C1438.47 404.563 1436.23 406.014 1434.54 407.996L1434.22 408.446C1432.86 410.512 1432.17 412.947 1432.25 415.418C1432.25 422.326 1436.34 430.358 1439.3 436.27C1439.75 437.138 1440.2 437.973 1440.55 438.744L1440.97 439.676L1440.97 443.339L1439.01 439.355L1437.75 436.881Z" fill="#D8CEB5"/>
<path d="M23.097 421.78C24.8585 421.161 26.7356 420.94 28.5928 421.135C30.4499 421.329 32.2408 421.934 33.8356 422.904C41.1339 427.627 42.9985 440.351 44.3489 449.636L44.9921 453.877L45.41 455.965C47.0575 463.361 48.0579 470.887 48.4 478.456C48.8108 481.586 48.0179 484.755 46.1816 487.324C45.8182 487.667 45.3883 487.933 44.9183 488.104C44.4484 488.275 43.948 488.349 43.4486 488.32C35.1215 487.87 30.0095 475.147 26.9552 467.532C26.4729 466.343 26.0549 465.251 25.637 464.319C24.7689 462.263 23.6114 459.949 22.4219 457.476C18.4994 449.636 14.0625 440.736 14.0625 433.122C14.0709 432.175 14.1462 431.23 14.2876 430.294C14.7284 428.154 15.8049 426.197 17.3766 424.678C18.9482 423.159 20.942 422.149 23.097 421.78ZM16.088 430.712C15.9574 431.541 15.8929 432.379 15.8951 433.218C15.8951 440.415 20.2356 449.09 24.0294 456.769C25.2833 459.243 26.4407 461.588 27.2445 463.676C27.6625 464.576 28.0804 465.669 28.5627 466.889C31.4563 474.086 36.311 486.167 43.4486 486.52C43.6953 486.545 43.9447 486.515 44.1782 486.431C44.4117 486.348 44.6239 486.214 44.7991 486.038C45.5707 485.332 46.4709 483.436 46.4709 478.52C46.1265 471.057 45.126 463.639 43.4808 456.351L43.063 454.23L42.4199 449.925C41.166 441.507 39.2048 428.752 32.7745 424.479C31.3989 423.656 29.8577 423.148 28.262 422.993C26.6662 422.837 25.056 423.037 23.5471 423.579C21.7253 423.869 20.0353 424.706 18.7025 425.981C17.3697 427.255 16.4576 428.906 16.088 430.712Z" fill="#D8CEB5"/>
<path d="M66.0831 359.16C75.5356 357.65 85.3739 355.947 92.7366 362.373C101.61 369.827 102.221 381.972 102.768 392.703L102.768 393.827C102.961 397.619 103.186 401.956 103.604 406.101C107.204 449.196 118.599 491.282 137.234 530.313C143.085 542.554 149.741 554.57 156.203 566.201C159.74 572.627 163.405 579.053 166.91 585.768L167.135 586.218C171.218 593.929 175.462 601.897 175.462 610.122C175.494 614.367 174.239 618.523 171.861 622.042C163.373 635.118 146.815 641.319 130.836 647.456C123.986 649.897 117.287 652.74 110.773 655.97L108.78 655.97C115.803 652.234 123.088 649.013 130.578 646.332C146.397 640.323 162.73 634.122 171.121 621.303C173.38 617.928 174.578 613.957 174.562 609.897C174.562 601.929 170.382 594.057 166.363 586.443L166.106 585.993C162.634 579.567 158.968 572.852 155.432 566.458C149.001 554.795 142.282 542.779 136.43 530.505C117.748 491.373 106.321 449.179 102.703 405.972C102.286 401.795 102.06 397.458 101.867 393.635L101.867 392.542C101.353 382.004 100.71 370.052 92.2222 362.887C85.1167 356.943 75.5679 358.485 66.3404 359.995C63.3503 360.477 60.5532 360.927 57.7882 361.152C47.1785 362.372 36.475 362.555 25.8297 361.698C15.1551 360.333 4.57762 358.294 -5.83925 355.593L-5.83925 354.597C4.58238 357.402 15.1703 359.548 25.8618 361.023C36.4432 361.863 47.081 361.68 57.6273 360.477C60.328 360.092 63.1252 359.642 66.0831 359.16Z" fill="#D8CEB5"/>
<path d="M760.743 597.527C784.246 589.174 793.666 597.527 818.616 635.408L824.692 644.5C827.49 648.452 830.094 652.243 832.634 655.97L831.444 655.97L823.985 645.014L817.941 635.922C793.184 598.62 783.925 590.298 761.065 598.427C740.392 605.784 722.837 620.018 704.286 635.086C695.637 642.123 686.828 649.255 677.407 655.97L675.768 655.97C685.606 649.063 694.769 641.641 703.707 634.347C722.323 619.214 739.909 604.949 760.743 597.527Z" fill="#D8CEB5"/>
<path d="M78.7185 401.86C83.1554 412.013 84.2164 423.097 85.1488 433.989C85.6318 440.174 86.4368 446.33 87.5602 452.431C93.7209 482.733 103.568 512.168 116.882 540.08C123.023 552.932 129.743 565.237 136.494 577.189C137.427 578.86 138.681 580.852 139.999 582.908C144.404 589.816 149.869 598.395 149.869 606.041C149.913 608.769 149.103 611.442 147.554 613.688C143.471 619.536 135.208 622.299 127.91 624.741C126.11 625.351 124.373 625.929 122.83 626.508C119.212 628.074 115.69 629.855 112.284 631.841C102.639 637.175 90.5181 643.825 83.3484 641.48C76.1787 639.135 71.9989 629.496 68.7838 621.849C68.0443 620.114 67.3691 618.475 66.694 617.062C61.0673 604.931 54.5438 593.235 47.1781 582.073C27.9147 553.051 10.2172 523.021 -5.83924 492.111L-5.83924 490.055C10.4529 521.443 28.4192 551.935 47.9821 581.398C55.3686 592.504 61.9134 604.145 67.562 616.226C68.2372 617.64 68.9446 619.439 69.6841 621.046C72.8992 628.532 76.7252 637.849 83.6377 640.131C90.5502 642.412 102.382 635.857 111.931 630.492C115.365 628.478 118.919 626.676 122.573 625.094C124.148 624.484 125.788 623.905 127.717 623.295C134.855 620.917 142.957 618.218 147.008 612.628C148.442 610.54 149.194 608.06 149.162 605.527C149.162 598.138 143.761 589.72 139.517 583.037C138.166 580.916 136.912 578.956 135.948 577.189C129.196 565.526 122.284 553.157 116.11 540.305C102.759 512.332 92.8798 482.832 86.6921 452.463C85.5727 446.329 84.7678 440.141 84.2808 433.925C83.2519 423.258 82.1909 412.27 77.8505 402.245C70.102 384.574 54.991 384.638 39.0118 384.735C33.6465 384.867 28.2781 384.674 22.9361 384.156C13.1975 382.898 3.53698 381.096 -6.00001 378.759L-6.00001 377.763C3.53368 380.123 13.1949 381.936 22.9361 383.193C28.2137 383.707 33.5179 383.9 38.819 383.771C55.2483 383.674 70.745 383.61 78.7185 401.86Z" fill="#D8CEB5"/>
<path d="M-3.26722 444.945C17.3531 487.766 40.7891 529.175 66.8868 568.9C69.7787 573.343 72.3986 577.956 74.7318 582.716C77.8473 589.337 81.6974 595.588 86.2098 601.351C92.6401 608.965 99.0702 610.989 106.851 607.776C109.582 606.893 111.948 605.139 113.586 602.783C115.224 600.426 116.043 597.598 115.918 594.732C115.918 584.354 107.494 570.474 101.321 560.386C98.9095 556.37 96.8197 552.932 95.5337 550.233C81.3378 520.577 70.8628 489.281 64.3469 457.058C63.0403 450.141 62.1066 443.159 61.5498 436.142L61.2604 432.543C60.6173 424.479 59.8779 415.354 53.8978 410.053C47.9177 404.751 35.7002 404.077 25.894 403.627C23.1933 403.627 20.6212 403.402 18.4028 403.209L17.1811 403.209C10.7508 402.599 1.10546 401.731 -5.83924 404.044L-5.83924 402.149C1.42699 399.932 10.8794 400.799 17.3418 401.378L18.5314 401.378C20.7497 401.571 23.2899 401.667 25.9585 401.795C36.0218 402.213 48.4643 402.759 54.8946 408.607C61.3249 414.454 62.1285 423.965 62.8037 432.318L63.093 435.917C63.6368 442.87 64.5599 449.788 65.858 456.64C72.4062 488.741 82.8805 519.916 97.0448 549.462C98.2987 552.064 100.26 555.502 102.768 559.454C109.037 569.703 117.59 583.808 117.59 594.636C117.706 597.817 116.788 600.951 114.974 603.569C113.161 606.187 110.547 608.147 107.526 609.158C99.0703 612.66 91.9327 610.475 85.0203 602.347C80.4376 596.504 76.5229 590.167 73.3494 583.455C71.0377 578.754 68.4504 574.195 65.6009 569.8C39.447 530.025 15.9779 488.55 -4.64967 445.652L-5.80702 443.339L-5.80702 439.676L-3.26722 444.945Z" fill="#D8CEB5"/>
<path d="M132.058 229.711C145.175 215.221 156.653 192.28 169.964 165.741C179.288 147.171 202.115 122.27 220.763 123.748C230.987 124.552 238.607 132.777 243.462 148.135C245.435 154.686 246.39 161.502 246.291 168.344C246.291 188.007 239.861 210.112 233.977 229.711C231.341 238.643 228.865 247.061 227.129 254.772C212.436 319.416 203.562 358.453 203.562 393.41C203.562 424.382 210.506 451.532 227.515 487.131C240.681 514.259 255.421 540.596 271.658 566.008C289.824 595.374 297.894 609.062 297.894 626.444C297.56 636.509 295.695 646.465 292.364 655.97L290.692 655.97C294.064 646.526 295.983 636.624 296.383 626.604C296.383 609.672 288.409 596.113 270.372 567.004C254.114 541.494 239.353 515.06 226.164 487.838C209.028 452.014 202.051 424.639 202.051 393.41C202.051 358.26 210.925 319.191 225.65 254.418C227.418 246.675 229.894 238.354 232.53 229.261C238.285 209.823 244.78 187.782 244.78 168.215C244.884 161.536 243.951 154.881 242.015 148.488C237.385 133.805 230.215 125.997 220.731 125.226C202.758 123.813 180.606 148.167 171.507 166.32C158.132 192.987 146.59 216.024 133.344 230.578C93.251 274.981 41.0373 267.88 -5.83925 254.354L-5.83925 252.683C40.7158 266.146 92.5758 273.375 132.058 229.711Z" fill="#D8CEB5"/>
<path d="M1440.97 58.7507L1440.97 61.1284C1422.26 66.316 1403.13 69.8109 1383.8 71.5704C1347.57 75.1367 1300.21 78.2853 1254.3 70.8635C1220.92 65.4658 1206.07 54.6061 1206.07 35.5213C1206.07 23.4406 1211.92 9.40016 1218.71 -6.85729C1223.84 -18.3708 1228.28 -30.1837 1231.98 -42.2316L1232.95 -45.8301C1242.59 -81.3973 1243.85 -121.495 1236.97 -164.034C1234.84 -175.555 1232.1 -186.955 1228.77 -198.187C1224.24 -214.509 1219.57 -231.377 1218.83 -248.502C1218.42 -257.787 1219.35 -264.406 1221.7 -269.065C1228.51 -282.752 1245.52 -276.101 1263.49 -269.065C1274.13 -264.92 1285.16 -260.614 1295.03 -259.908C1347.5 -256.148 1395.31 -285.418 1441 -324.166L1441 -321.21C1395.41 -282.816 1347.57 -253.899 1294.87 -257.691C1284.65 -258.398 1273.49 -262.767 1262.72 -267.008C1244.94 -273.948 1229.61 -279.86 1223.72 -268.101C1221.27 -261.921 1220.37 -255.238 1221.09 -248.63C1221.82 -231.762 1226.45 -215.023 1230.92 -198.83C1234.28 -187.517 1237.02 -176.03 1239.12 -164.419C1246.07 -121.559 1244.68 -81.1403 1235.07 -45.2839L1234.07 -41.6533C1230.37 -29.4794 1225.93 -17.5381 1220.8 -5.89336C1214.11 10.1713 1208.32 23.9869 1208.32 35.6177C1208.32 53.2246 1222.6 63.4096 1254.65 68.6145C1300.18 75.9721 1347.47 72.8555 1383.58 69.2891C1402.99 67.5363 1422.2 64.0087 1440.97 58.7507Z" fill="#D8CEB5"/>
<path d="M1348.98 -60.5132C1349.09 -65.6559 1349.75 -70.7725 1350.94 -75.7747C1352.26 -81.6865 1353.52 -87.277 1354.16 -92.3534C1355.32 -100.964 1355.8 -109.285 1356.22 -116.675C1356.62 -124.854 1359.01 -132.814 1363.16 -139.873C1380.68 -169.785 1416.47 -182.283 1431.03 -186.267C1434.54 -187.231 1437.82 -188.195 1440.94 -189.127L1440.94 -188.131C1437.72 -187.199 1434.7 -186.267 1431.29 -185.336C1416.82 -181.384 1381.33 -168.982 1364 -139.391C1359.91 -132.449 1357.58 -124.621 1357.18 -116.579C1356.76 -109.221 1356.28 -100.868 1355.12 -92.2248C1354.42 -87.1163 1353.19 -81.4936 1351.91 -75.5497C1350.73 -70.6201 1350.09 -65.5796 1349.98 -60.5132C1349.98 -53.4127 1351.81 -48.4647 1355.57 -45.3803C1361.1 -40.8179 1371.07 -40.1754 1386.86 -43.3562L1389.43 -43.8702C1411.16 -48.1434 1428.01 -55.501 1440.87 -67.0997L1440.87 -65.8467C1427.75 -54.4409 1411.07 -47.1796 1389.43 -42.9064L1386.86 -42.3923C1370.78 -39.1794 1360.56 -39.8862 1354.71 -44.6414C1350.94 -47.9828 1348.98 -53.1556 1348.98 -60.5132Z" fill="#D8CEB5"/>
<path d="M1382.9 -66.9391C1378.11 -69.413 1375.67 -74.7144 1375.67 -82.7788C1375.69 -85.0687 1375.86 -87.3546 1376.18 -89.6224C1377.44 -99.0363 1377.95 -107.84 1378.4 -115.647C1378.64 -120.322 1380 -124.87 1382.36 -128.916C1392.52 -146.266 1422.45 -166.829 1440.97 -167.472L1440.97 -165.865C1423.19 -165.158 1393.48 -144.724 1383.74 -128.049C1382.56 -126.033 1381.66 -123.873 1381.04 -121.623C1380.45 -119.528 1380.1 -117.372 1380.01 -115.197C1379.56 -107.422 1379.04 -98.5865 1377.76 -89.1083C1376.28 -78.0237 1378.27 -70.8268 1383.64 -68.0637C1390.94 -64.3367 1404.96 -68.7705 1420.29 -79.6945C1429.06 -86.155 1436.14 -94.6152 1440.97 -104.37L1440.97 -100.996C1436.12 -92.1392 1429.38 -84.4598 1421.23 -78.5056C1405.18 -66.9391 1390.84 -62.698 1382.9 -66.9391Z" fill="#D8CEB5"/>
<path d="M1323.94 -47.0832C1324.43 -58.4424 1326.12 -69.7178 1328.98 -80.7226C1330.17 -86.1525 1331.33 -91.2931 1331.88 -95.4378C1332.94 -103.181 1333.36 -110.731 1333.81 -117.928C1334.68 -133.093 1335.48 -147.455 1341.97 -158.861C1347.21 -168.05 1355.83 -174.733 1368.31 -179.327C1393.43 -188.209 1417.75 -199.25 1440.97 -212.324L1440.97 -211.232C1417.84 -198.29 1393.63 -187.358 1368.63 -178.556C1356.38 -174.026 1347.92 -167.472 1342.91 -158.508C1336.48 -147.327 1335.74 -133.061 1334.87 -117.993C1334.42 -110.667 1334 -103.117 1332.94 -95.3093C1332.39 -91.1325 1331.24 -85.9597 1330.01 -80.4977C1327.18 -69.5644 1325.5 -58.3655 1325 -47.0832C1325 -36.4484 1327.57 -28.9301 1332.91 -24.0786C1345.77 -12.255 1375.44 -18.1669 1391.33 -21.3477L1393.87 -21.8617C1410.49 -24.8544 1426.45 -30.8072 1440.97 -39.4365L1440.97 -38.312C1426.44 -29.7777 1410.52 -23.882 1393.93 -20.8978L1391.42 -20.4159C1375.35 -17.2029 1345.48 -11.2269 1332.17 -23.3718C1326.64 -28.3839 1323.94 -36.1593 1323.94 -47.0832Z" fill="#D8CEB5"/>
<path d="M1440.97 -295.796L1440.97 -293.579C1437.27 -290.027 1433.38 -286.69 1429.3 -283.587C1381.07 -248.245 1336.6 -232.437 1293.26 -235.554C1276.42 -236.743 1265.26 -234.686 1259.15 -229.128C1257.15 -227.17 1255.6 -224.799 1254.6 -222.18C1253.61 -219.561 1253.2 -216.757 1253.4 -213.963C1253.4 -204.613 1256.97 -193.079 1260.73 -180.902C1264.48 -170.061 1267.21 -158.897 1268.89 -147.552C1269.78 -139.292 1270.22 -130.99 1270.21 -122.683C1270.21 -95.4378 1265.87 -69.5737 1261.27 -42.3602L1258.96 -28.4803L1258.96 -28.1269C1257.06 -17.8623 1255.98 -7.46209 1255.74 2.97419C1255.58 23.0229 1262.24 35.8747 1275.94 42.3005C1304.52 55.5378 1338.92 51.9393 1369.17 48.5657C1373.26 48.1481 1377.31 47.6982 1381.3 47.3127C1401.54 45.5406 1421.55 41.6202 1440.97 35.6176L1440.97 37.3205C1421.62 43.1752 1401.72 46.9979 1381.58 48.7264C1377.6 49.1119 1373.55 49.5295 1369.46 49.9794C1338.89 53.1923 1304.23 57.0158 1275.23 43.5536C1260.92 36.9028 1253.98 23.6013 1253.98 2.87788C1254.21 -7.64367 1255.29 -18.1297 1257.19 -28.4803L1257.19 -28.8338L1259.51 -42.7137C1264.07 -70.0236 1268.41 -95.8555 1268.41 -123.037C1268.42 -131.29 1267.98 -139.538 1267.09 -147.744C1265.42 -158.98 1262.71 -170.037 1258.99 -180.773C1255.2 -193.079 1251.6 -204.71 1251.6 -214.316C1251.4 -217.347 1251.87 -220.385 1252.98 -223.212C1254.09 -226.039 1255.82 -228.585 1258.03 -230.67C1264.46 -236.453 1276 -238.638 1293.39 -237.385C1336.32 -234.172 1380.46 -249.948 1428.43 -285.129C1432.82 -288.432 1437 -291.994 1440.97 -295.796Z" fill="#D8CEB5"/>
<path d="M1279.38 -12.0944C1279.58 -21.0466 1280.52 -29.9666 1282.2 -38.7617C1287.3 -69.7166 1289.77 -101.048 1289.57 -132.419C1289.57 -140.933 1289.57 -149.672 1289.15 -159.182C1289.15 -162.395 1288.99 -165.351 1288.99 -167.954C1288.99 -183.665 1290.89 -192.822 1295.42 -199.569C1301.01 -207.665 1310.82 -212.421 1328.18 -215.634C1368.05 -222.895 1403.87 -238.895 1440.71 -265.884L1440.71 -264.695C1404.09 -237.835 1368.31 -221.899 1328.44 -214.734C1311.37 -211.521 1301.75 -206.927 1296.29 -199.087C1291.75 -192.5 1289.86 -183.504 1289.86 -168.018C1289.86 -165.415 1289.86 -162.556 1289.86 -159.279C1290.15 -149.64 1290.27 -140.997 1290.27 -132.483C1290.48 -101.057 1288 -69.6715 1282.88 -38.6653C1281.22 -29.9213 1280.29 -21.0558 1280.08 -12.1586C1280.08 7.11896 1286.51 21.0952 1318.25 25.9467C1348.57 30.5734 1380.65 26.4608 1402.23 22.2197C1415.42 19.6734 1428.34 15.8756 1440.81 10.8781L1440.81 11.9062C1428.42 16.8784 1415.59 20.6442 1402.48 23.1514C1380.84 27.4246 1348.66 31.5372 1318.21 26.9106C1290.66 22.7338 1279.38 11.4243 1279.38 -12.0944Z" fill="#D8CEB5"/>
<path d="M1303.52 -25.3316C1303.54 -28.563 1303.83 -31.787 1304.39 -34.9704C1308.8 -61.845 1311.3 -88.9979 1311.88 -116.225C1311.88 -122.651 1311.88 -129.077 1311.72 -135.246C1311.72 -139.326 1311.53 -143.182 1311.53 -146.941C1311.53 -158.475 1312.43 -170.46 1318.89 -179.681C1324.29 -187.36 1333.2 -192.79 1346.15 -196.356C1379.79 -205.343 1411.79 -219.592 1440.97 -238.574L1440.97 -237.417C1411.84 -218.566 1379.94 -204.406 1346.41 -195.456C1333.55 -191.954 1324.93 -186.621 1319.69 -179.167C1313.26 -170.138 1312.49 -158.347 1312.49 -147.037C1312.49 -143.278 1312.49 -139.455 1312.68 -135.375C1312.68 -129.302 1313.01 -122.94 1312.68 -116.29C1312.16 -88.9911 1309.72 -61.7632 1305.35 -34.8097C1302.88 -20.1266 1305.84 -9.10638 1314.13 -2.39135C1333 13.1271 1375.22 4.77356 1398.11 0.275454C1412.94 -2.54413 1427.35 -7.27454 1440.97 -13.7972L1440.97 -12.7048C1427.39 -6.29773 1413.06 -1.64429 1398.3 1.14295C1375.38 5.67316 1332.75 13.9946 1313.52 -1.71661C1310.15 -4.61938 1307.49 -8.26025 1305.76 -12.356C1304.02 -16.4518 1303.26 -20.892 1303.52 -25.3316Z" fill="#D8CEB5"/>
</svg>